#!OML:ASF X:\für Bonn\!DataBase\2005_08_12_Daniel\c3d\Daniel.ASF
:FULLY-SPECIFIED
:DEGREES
108
root 0.446708 13.3358 -15.8278 351.96 17.8604 -0.61218
lowerback 69.0432 -1.43684 5.87638
upperback 12.6013 2.62645 -3.34134
thorax -6.76627 2.01525 -7.41881
lowerneck 2.43211 -3.76541 -5.81348
upperneck 16.0581 -4.98284 2.42605
head 4.63285 -2.54135 1.54908
rclavicle 8.74653e-015 -2.38542e-015
rhumerus 35.1038 -22.2066 -98.8109
rradius 6.87615
rwrist 44.421
rhand -29.0105 12.9854
rfingers 7.12502
rthumb -2.3618 -16.9812
lclavicle 8.74653e-015 -2.38542e-015
lhumerus -15.8949 -1.78665 86.6131
lradius 67.1047
lwrist -1.46847
lhand -11.7646 -9.58288
lfingers 7.12502
lthumb 14.2838 19.9058
rfemur -52.7964 -41.964 17.7872
rtibia 100.202
rfoot -28.1133 -347.615
rtoes -3.78907
lfemur -56.0146 8.18561 -19.7374
ltibia 98.9887
lfoot -31.4583 -19.9066
ltoes -1.04301
109
root 0.437969 13.1994 -15.8119 351.679 17.9325 -0.531417
lowerback 69.6463 -1.5423 5.93978
upperback 12.5798 2.61182 -3.32895
thorax -6.75348 2.02227 -7.42114
lowerneck 2.14183 -3.84754 -5.77484
upperneck 16.2379 -5.07055 2.37624
head 4.73794 -2.5823 1.51713
rclavicle 5.00937e-014 -4.33351e-014
rhumerus 35.4979 -22.5767 -99.0115
rradius 6.90774
rwrist 44.9338
rhand -29.5679 12.955
rfingers 7.12502
rthumb -2.90016 -17.005
lclavicle 5.00937e-014 -4.33351e-014
lhumerus -15.9502 -1.72047 86.6438
lradius 66.5583
lwrist -1.597
lhand -11.7307 -9.51134
lfingers 7.12502
lthumb 14.3165 19.9751
rfemur -53.4544 -42.9259 17.3169
rtibia 101.889
rfoot -27.9427 -346.896
rtoes -3.74892
lfemur -56.6608 8.57547 -19.7509
ltibia 100.426
lfoot -31.7688 -20.2462
ltoes -0.899699
110
root 0.429271 13.0609 -15.7951 351.405 17.9939 -0.449153
lowerback 70.2084 -1.61632 5.96507
upperback 12.5581 2.60703 -3.28908
thorax -6.74218 2.02868 -7.38005
lowerneck 1.92708 -3.91378 -5.7937
upperneck 16.3853 -5.14043 2.3355
head 4.82185 -2.61767 1.49954
rclavicle -3.81667e-014 5.64548e-014
rhumerus 35.8775 -22.8994 -99.1928
rradius 6.91869
rwrist 45.4477
rhand -30.1156 12.9531
rfingers 7.12502
rthumb -3.42906 -16.9991
lclavicle -3.81667e-014 5.64548e-014
lhumerus -16.0493 -1.62743 86.696
lradius 66.0584
lwrist -1.70686
lhand -11.6284 -9.38605
lfingers 7.12502
lthumb 14.415 20.0934
rfemur -54.0945 -43.8973 16.8317
rtibia 103.552
rfoot -27.7546 -346.173
rtoes -3.58016
lfemur -57.3413 8.99974 -19.7633
ltibia 101.88
lfoot -32.0938 -20.5556
ltoes -0.795873
111
root 0.421185 12.921 -15.7772 351.09 18.0596 -0.391309
lowerback 70.7474 -1.71798 6.02184
upperback 12.5679 2.59216 -3.26799
thorax -6.69218 2.03677 -7.36767
lowerneck 1.69935 -3.97649 -5.81823
upperneck 16.5156 -5.21341 2.35414
head 4.90433 -2.65197 1.50075
rclavicle -7.95139e-016 -2.98177e-014
rhumerus 36.2055 -23.2627 -99.362
rradius 7.00158
rwrist 45.9888
rhand -30.5899 13.0644
rfingers 7.12502
rthumb -3.88714 -16.8799
lclavicle -7.95139e-016 -2.98177e-014
lhumerus -16.1029 -1.58462 86.7152
lradius 65.5646
lwrist -1.78763
lhand -11.6148 -9.28609
lfingers 7.12502
lthumb 14.4282 20.1924
rfemur -54.6445 -44.9208 16.3015
rtibia 105.187
rfoot -27.5821 -345.403
rtoes -3.4351
lfemur -58.004 9.46607 -19.7331
ltibia 103.351
lfoot -32.3658 -20.9312
ltoes -0.598209
112
root 0.413464 12.7763 -15.7598 350.791 18.1262 -0.314888
lowerback 71.2598 -1.82024 6.08591
upperback 12.5675 2.58001 -3.25389
thorax -6.65278 2.04604 -7.36787
lowerneck 1.53295 -4.04278 -5.78279
upperneck 16.638 -5.28699 2.31229
head 4.97115 -2.68624 1.47459
rclavicle -3.26007e-014 3.97569e-015
rhumerus 36.5458 -23.6283 -99.5664
rradius 7.02422
rwrist 46.543
rhand -31.0632 13.1425
rfingers 7.12502
rthumb -4.34413 -16.793
lclavicle -3.26007e-014 3.97569e-015
lhumerus -16.163 -1.53528 86.7521
lradius 65.0701
lwrist -1.87437
lhand -11.5479 -9.25384
lfingers 7.12502
lthumb 14.4927 20.22
rfemur -55.1978 -45.9681 15.7338
rtibia 106.81
rfoot -27.3931 -344.611
rtoes -3.1743
lfemur -58.7021 9.97346 -19.7228
ltibia 104.835
lfoot -32.5808 -21.3265
ltoes -0.513475
113
root 0.405986 12.6311 -15.7406 350.46 18.1855 -0.273011
lowerback 71.7585 -1.91193 6.12313
upperback 12.5646 2.56286 -3.21997
thorax -6.61762 2.04889 -7.33178
lowerneck 1.43963 -4.08235 -5.79381
upperneck 16.7203 -5.33197 2.30238
head 5.01432 -2.70819 1.46886
rclavicle -4.45278e-014 1.59028e-014
rhumerus 36.8244 -23.9265 -99.758
rradius 7.04458
rwrist 47.1207
rhand -31.648 13.3533
rfingers 7.12502
rthumb -4.90882 -16.5699
lclavicle -4.45278e-014 1.59028e-014
lhumerus -16.2404 -1.4631 86.793
lradius 64.5903
lwrist -1.91006
lhand -11.4927 -9.21825
lfingers 7.12502
lthumb 14.5459 20.2518
rfemur -55.6575 -47.0533 15.1406
rtibia 108.385
rfoot -27.2571 -343.796
rtoes -2.92591
lfemur -59.3962 10.512 -19.6537
ltibia 106.34
lfoot -32.7822 -21.7672
ltoes -0.379332
114
root 0.398155 12.4849 -15.7209 350.139 18.2524 -0.19593
lowerback 72.2043 -1.98573 6.13998
upperback 12.5867 2.54803 -3.19119
thorax -6.5566 2.0551 -7.29376
lowerneck 1.37077 -4.13031 -5.78662
upperneck 16.7959 -5.38817 2.28291
head 5.05109 -2.73497 1.45721
rclavicle -2.94201e-014 1.86858e-014
rhumerus 37.1489 -24.2193 -100.011
rradius 7.0107
rwrist 47.7413
rhand -32.2402 13.5076
rfingers 7.12502
rthumb -5.48066 -16.4015
lclavicle -2.94201e-014 1.86858e-014
lhumerus -16.3165 -1.42364 86.807
lradius 64.1166
lwrist -1.97738
lhand -11.4829 -9.29256
lfingers 7.12502
lthumb 14.5553 20.1768
rfemur -56.0818 -48.1967 14.454
rtibia 109.961
rfoot -27.1572 -342.941
rtoes -2.67053
lfemur -60.0843 11.0721 -19.6118
ltibia 107.821
lfoot -32.9055 -22.2514
ltoes -0.0642426
115
root 0.391347 12.3386 -15.7011 349.81 18.3093 -0.134224
lowerback 72.6185 -2.06663 6.16504
upperback 12.6091 2.52805 -3.16801
thorax -6.49632 2.05905 -7.26345
lowerneck 1.39391 -4.15497 -5.76937
upperneck 16.8113 -5.42083 2.27981
head 5.05283 -2.74944 1.45241
rclavicle -1.11319e-014 -1.66979e-014
rhumerus 37.4438 -24.4959 -100.27
rradius 6.96614
rwrist 48.355
rhand -32.9092 13.7144
rfingers 7.12502
rthumb -6.12659 -16.177
lclavicle -1.11319e-014 -1.66979e-014
lhumerus -16.4153 -1.39497 86.824
lradius 63.6697
lwrist -1.9665
lhand -11.4425 -9.31252
lfingers 7.12502
lthumb 14.5942 20.154
rfemur -56.4648 -49.3943 13.7287
rtibia 111.514
rfoot -27.0777 -342.057
rtoes -2.46562
lfemur -60.7805 11.633 -19.5393
ltibia 109.301
lfoot -32.9838 -22.754
ltoes 0.214507
116
root 0.383954 12.1948 -15.6817 349.46 18.382 -0.0777183
lowerback 73.0194 -2.13753 6.16938
upperback 12.6464 2.50811 -3.12485
thorax -6.41982 2.06159 -7.20081
lowerneck 1.39721 -4.18487 -5.73353
upperneck 16.8221 -5.45403 2.23148
head 5.05483 -2.76544 1.43008
rclavicle -1.27222e-014 2.14687e-014
rhumerus 37.6837 -24.7628 -100.498
rradius 6.97209
rwrist 48.9614
rhand -33.6228 13.931
rfingers 7.12502
rthumb -6.81544 -15.9393
lclavicle -1.27222e-014 2.14687e-014
lhumerus -16.5003 -1.36892 86.8422
lradius 63.2436
lwrist -1.94301
lhand -11.415 -9.31129
lfingers 7.12502
lthumb 14.6207 20.1533
rfemur -56.743 -50.6683 12.9208
rtibia 113.03
rfoot -26.9664 -341.135
rtoes -2.15481
lfemur -61.4489 12.1979 -19.4506
ltibia 110.755
lfoot -33.052 -23.2586
ltoes 0.451919
117
root 0.376835 12.0541 -15.6625 349.087 18.4352 -0.0397508
lowerback 73.4543 -2.21818 6.197
upperback 12.6445 2.4927 -3.10045
thorax -6.38247 2.06542 -7.17246
lowerneck 1.41724 -4.2063 -5.71999
upperneck 16.9094 -5.4806 2.22379
head 5.07914 -2.77729 1.42428
rclavicle -6.36111e-015 -4.25399e-014
rhumerus 37.8697 -25.0454 -100.745
rradius 6.93957
rwrist 49.4942
rhand -34.4341 14.2363
rfingers 7.12502
rthumb -7.59855 -15.6072
lclavicle -6.36111e-015 -4.25399e-014
lhumerus -16.6084 -1.35484 86.8513
lradius 62.799
lwrist -1.94141
lhand -11.3721 -9.33278
lfingers 7.12502
lthumb 14.662 20.1288
rfemur -56.919 -51.9514 12.0565
rtibia 114.499
rfoot -26.8137 -340.219
rtoes -1.88643
lfemur -62.0945 12.7678 -19.3169
ltibia 112.197
lfoot -33.0668 -23.7816
ltoes 0.762289
118
root 0.3703 11.914 -15.6426 348.729 18.5044 -0.000755225
lowerback 73.8332 -2.29673 6.20808
upperback 12.6508 2.46563 -3.06794
thorax -6.3419 2.06226 -7.12319
lowerneck 1.52211 -4.21347 -5.67453
upperneck 16.9152 -5.49127 2.19704
head 5.06184 -2.78112 1.41046
rclavicle -3.65764e-014 5.36719e-014
rhumerus 37.9956 -25.2962 -100.993
rradius 6.95076
rwrist 50.0205
rhand -35.2995 14.5032
rfingers 7.12502
rthumb -8.43386 -15.3084
lclavicle -3.65764e-014 5.36719e-014
lhumerus -16.7352 -1.34439 86.8485
lradius 62.3933
lwrist -1.86911
lhand -11.3273 -9.27988
lfingers 7.12502
lthumb 14.7052 20.1786
rfemur -57.0552 -53.332 11.1104
rtibia 115.965
rfoot -26.5907 -339.245
rtoes -1.53984
lfemur -62.768 13.3603 -19.1826
ltibia 113.62
lfoot -32.955 -24.37
ltoes 1.23842
